<?xml version="1.0" encoding="utf-8" ?><svg xmlns="http://www.w3.org/2000/svg" xmlns:xlink="http://www.w3.org/1999/xlink" viewBox="140 318 1000 188" width="100%" height="100%"><path fill="#FFFFFF" d="M756.23 348.665C765.916 347.913 779.82 348.38 789.867 348.466C789.673 381.948 789.665 415.43 789.843 448.912C789.825 462.758 790.204 478.886 789.555 492.562L761.617 492.563L761.498 402.903C761.46 402.32 761.544 398.748 760.955 398.663C760.482 399.028 759.78 401.009 759.49 401.66C751.362 420.605 740.866 440.713 731.77 459.225C729.075 464.708 717.58 489.957 714.818 492.817C712.845 492.697 711.493 492.794 709.741 491.9C706.068 485.852 699.328 469.73 696.019 462.645L665.124 396.538C665.141 426.864 666.154 462.682 665.102 492.5C655.737 492.55 646.372 492.543 637.007 492.478L636.913 348.592C647.942 348.106 661.854 348.179 672.943 348.594C683.335 370.763 692.508 393.825 702.92 416.021C706.301 423.227 710.079 433.551 713.647 440.254L742.129 378.372C745.659 370.752 752.26 355.47 756.23 348.665Z"/><path fill="#FFFFFF" d="M591.068 348.511C600.188 348.281 609.312 348.34 618.428 348.688C618.043 359.69 617.248 453.112 619.084 457.043C620.233 459.506 623.593 460.682 625.901 461.712C626.163 471.359 625.799 482.713 625.732 492.49C608.584 492.73 604.192 491.322 597.249 475.576C586.26 491.994 569.059 494.704 550.595 492.907C544.666 491.819 540.097 490.535 534.619 487.848C522.147 481.804 512.637 470.987 508.239 457.843C503.32 443.453 504.181 426.009 510.977 412.346C517.464 399.054 529.043 388.946 543.088 384.314C561.007 378.401 574.876 382.272 590.684 390.37C590.895 383.732 590.071 352.789 591.068 348.511ZM565.158 468.172C602.742 462.526 597.025 406.796 560.4 407.821C531.653 410.811 524.733 444.073 544.258 462.802C549.026 467.376 558.706 468.322 565.158 468.172Z"/><path fill="#2563EB" d="M324.295 332.921C327.775 332.463 332.185 332.49 335.763 332.411C334.039 336.515 329.273 344.6 326.889 348.908C320.777 359.867 314.73 370.862 308.747 381.892C297.753 402.606 286.599 423.234 275.284 443.775C269.484 454.483 263.846 464.946 257.765 475.669C247.834 493.755 216.527 497.289 203.407 481.393C193.11 468.917 183.99 448.672 176.284 434.016L162.724 408.529C160.225 403.907 156.914 398.463 154.96 393.761C170.564 393.574 186.17 393.556 201.775 393.708C209.741 404.89 219.741 429.5 227.515 442.474C231.709 436.757 237.638 424.861 241.156 418.302L260.716 382.35C264.482 375.387 269.631 365.116 274.724 359.407C288.502 343.962 303.611 334.875 324.295 332.921Z"/><path fill="#FFFFFF" d="M849.098 381.575C857.213 380.609 868.764 381.746 876.009 383.797C906.005 392.291 909.145 419.37 907.169 445.932C906.523 454.624 906.351 459.268 915.63 461.497L915.535 492.522C898.53 492.499 894.233 491.809 886.86 476.265C869.457 498.06 833.536 498.658 811.869 483.434C811.28 482.908 810.698 482.375 810.121 481.835C803.022 475.176 800.274 466.691 800.242 457.172C800.097 413.962 851.362 423.005 878.288 422.653C877.171 419.027 875.488 415.341 872.58 412.807C863.19 404.623 841.967 404.813 833.598 414.338C823.57 414.329 813.237 414.456 803.239 414.051C808.893 391.282 827.408 382.935 849.098 381.575ZM864.053 467.505C875.238 463.117 877.326 457.819 879.09 446.406C870.465 445.803 851.12 444.09 842.919 444.661C816.796 449.077 827.136 476.435 862.23 467.958C862.838 467.811 863.446 467.66 864.053 467.505Z"/><path fill="#FFFFFF" d="M348.452 381.574C354.976 380.597 368.888 381.931 374.815 383.841C405.628 392.56 407.41 418.522 406.015 445.6C405.577 454.121 405.548 459.14 414.407 461.529C414.53 471.868 414.543 482.209 414.447 492.549C398.009 492.524 392.481 491.724 385.843 476.088C385.229 476.839 384.61 477.586 383.985 478.328C367.52 497.84 328.33 498.101 309.618 482.219C297.887 469.737 294.587 446.899 307.448 434.185C325.077 416.759 355.151 423.268 377.391 422.896C373.162 410.572 366.167 407.181 353.03 407.121C344.435 407.082 338.536 408.134 332.322 414.393C322.168 414.16 312.01 414.108 301.854 414.235C309.045 390.961 325.427 383.106 348.452 381.574ZM364.393 467.208C374.823 462.385 376.783 457.614 377.905 446.471C369.403 445.137 348.699 444.576 339.77 445.196C314.43 451.044 329.52 477.144 364.393 467.208Z"/><path fill="#FFFFFF" d="M1062.13 381.569C1063.44 381.46 1064.75 381.394 1066.06 381.372C1094.58 380.982 1117.17 398.752 1123.53 426.446C1125.23 433.842 1125.13 439.946 1125.15 447.451L1070.25 446.997C1060.61 446.947 1047.01 446.617 1037.64 447.63C1045.41 472.601 1079.06 477.393 1092.53 456.87C1097.57 456.464 1105.03 456.635 1110.26 456.607L1123.42 456.785C1110.23 493.887 1059.11 505.501 1029.84 481.442C1018.47 472.163 1011.33 458.679 1010.05 444.057C1007.22 410.531 1028.2 384.211 1062.13 381.569ZM1039.46 426.834C1049.58 426.978 1060.05 427.253 1070.15 427.211C1077.91 427.234 1087.47 427.52 1095.09 427.094C1091.26 413.509 1080.92 405.894 1066.73 406.515C1052.28 408.579 1044.77 412.659 1039.46 426.834Z"/><path fill="#FFFFFF" d="M952.566 347.193C954.519 347.171 955.455 346.831 956.94 347.718C957.803 352.301 957.038 376.632 956.942 382.68C972.142 382.96 987.345 382.998 1002.55 382.794C1002.44 391.613 1002.49 400.432 1002.69 409.249C987.874 408.919 971.847 409.275 956.945 409.348C957.529 425.959 956.347 445.939 957.614 461.762C962.127 469.079 968.738 470.096 975.314 464.624C981.766 459.254 983.467 453.071 985.147 445.332C991.055 444.743 1001.06 444.878 1007.13 444.899C1006.58 452.578 1006.27 456.916 1003.97 464.358C991.061 498.667 943.353 505.687 931.233 468.824C927.141 456.378 930.664 424.509 928.738 409.144C925.737 408.822 920.178 408.961 916.984 408.946C913.963 399.45 911.968 396.121 907.012 387.434C948.088 383.768 919.343 354.726 952.566 347.193Z"/><path fill="#FFFFFF" d="M425.885 348.443C434.736 348.124 443.879 348.256 452.741 348.388C452.061 382.207 452.46 417.203 452.452 451.136L452.456 478.191C452.465 482.196 452.822 488.417 452.28 492.156L451.318 492.54C442.548 492.416 433.778 492.382 425.008 492.441L425.319 400.012C425.32 393.896 424.719 351.738 425.885 348.443Z"/><path fill="#FFFFFF" d="M468.371 386.519C474.89 386.213 482.478 385.098 488.202 388.97C492.078 391.592 493.291 394.295 494.103 398.775C495.505 406.506 495.787 490.332 494.231 492.548L467.595 492.519C467.782 481.078 466.908 389.382 468.371 386.519Z"/><path fill="#FFFFFF" d="M467.276 348.49C476.216 348.259 486.056 348.388 495.01 348.467C494.981 352.578 495.355 381.22 494.134 382.66C472.194 380.606 464.812 371.655 466.488 349.416C466.526 348.918 466.909 348.739 467.276 348.49Z"/></svg>